# xmcd
#
# Track frame offsets:
# 192
# 13755
# 28867
# 47635
# 69102
# 87827
# 98147
# 111985
# 135535
# 150327
# 161517
# 180320
# 195130
# 212575
#
# Disc length: 3007 seconds
#
# Revision: 0
# Processed by: cddbd v1.5.2PL0 Copyright (c) Steve Scherf et al.
# Submitted via: Audion 3.0.2 (http://www.panic.com/audion/)
#
DISCID=a30bbd0e
DTITLE=Townes Van Zandt - No Deeper Blue
DYEAR=1900
DGENRE=
TTITLE0=A Song For
TTITLE1=Blaze's Blue
TTITLE2=The Hole
TTITLE3=Marie
TTITLE4=Goin' Down To Memphis
TTITLE5=Hey Willie Boy
TTITLE6=Niles River Blues
TTITLE7=Billy, Boney And Ma
TTITLE8=Katie Belle Blue
TTITLE9=If I Was Washington
TTITLE10=Lover's Lullaby
TTITLE11=Cowboy Junkie's Lament
TTITLE12=BW Railroad Blues
TTITLE13=Gone Too Long
EXTD=
EXTT0=
EXTT1=
EXTT2=
EXTT3=
EXTT4=
EXTT5=
EXTT6=
EXTT7=
EXTT8=
EXTT9=
EXTT10=
EXTT11=
EXTT12=
EXTT13=
PLAYORDER=
